<svg xmlns="http://www.w3.org/2000/svg" width="382.78" height="181.672" viewBox="0 0 382.78 181.672">
  <g id="mdb_brandmark_full" data-name="mdb brandmark full" transform="translate(-14.89 463.66)">
    <g id="Group_637" transform="translate(14.89 -328.316)">
      <path id="Path_330" d="M14.841-261.223v-1.96l3.068-.6c.043-1.151.043-2.429.043-3.835v-9.205c0-.767-.043-1.619-.128-2.6l-3.324-.426v-1.79l7.927-2.983.767.469.341,3.708a14.252,14.252,0,0,1,3.708-3.068,8.5,8.5,0,0,1,4.176-1.108,5.654,5.654,0,0,1,5.924,4.3,12.608,12.608,0,0,1,3.921-3.281,9.2,9.2,0,0,1,4.219-1.023,5.767,5.767,0,0,1,4.816,2c1.065,1.321,1.619,3.452,1.619,6.35v8.694c0,1.364,0,2.6.043,3.835l2.9.554v1.96H43.351v-1.96l2.941-.6c.043-1.151.043-2.429.043-3.793v-7.969c0-2-.256-3.324-.767-4.049a2.9,2.9,0,0,0-2.6-1.023,7.954,7.954,0,0,0-5.2,2.429c.043.3.043.639.085.98A9.27,9.27,0,0,1,37.9-276.1v8.566c0,1.364,0,2.6.043,3.835l2.855.554v1.96H29.075v-1.96l3.026-.6c.043-1.151.043-2.429.043-3.793v-7.884a8.312,8.312,0,0,0-.724-4.049,2.9,2.9,0,0,0-2.6-1.151,5.627,5.627,0,0,0-2.642.639,10.46,10.46,0,0,0-2.557,1.747v10.7c0,1.364,0,2.642.043,3.835l2.813.554v1.96l-11.634-.043Z" transform="translate(-14.5 296.041)" fill="#ffd065"/>
      <path id="Path_331" d="M125.41-260.407a11.9,11.9,0,0,1-5.8-1.406,10.061,10.061,0,0,1-4.091-4.134,13.152,13.152,0,0,1-1.534-6.435,12.276,12.276,0,0,1,1.577-6.478,10.814,10.814,0,0,1,4.176-4.134,12.039,12.039,0,0,1,11.293,0,11.43,11.43,0,0,1,4.219,4.091,12.989,12.989,0,0,1,1.619,6.52,12.754,12.754,0,0,1-1.534,6.478,10.32,10.32,0,0,1-4.134,4.091,11.782,11.782,0,0,1-5.8,1.406m0-2.344a4.243,4.243,0,0,0,3.921-2.387c.895-1.577,1.364-4.006,1.364-7.245,0-6.52-1.747-9.759-5.284-9.759s-5.2,3.239-5.2,9.759c0,3.239.426,5.668,1.321,7.245a4.112,4.112,0,0,0,3.878,2.387" transform="translate(-71.585 295.906)" fill="#ffd065"/>
      <path id="Path_332" d="M175.184-261.213v-1.96l3.068-.6c.043-1.151.043-2.429.043-3.835V-273.7c0-1.278,0-2.344-.043-3.111,0-.767-.043-1.619-.128-2.6l-3.324-.426v-1.79l7.927-2.983.767.469.341,3.665c2.429-2.77,5.114-4.134,8.054-4.134a5.843,5.843,0,0,1,4.773,2.046c1.108,1.364,1.662,3.495,1.662,6.435v8.566c0,1.364,0,2.642.043,3.793l2.9.554v1.96H189.545v-1.96l3.026-.6c.043-1.151.043-2.429.043-3.75v-8.14a7.058,7.058,0,0,0-.767-3.878,2.959,2.959,0,0,0-2.557-1.065,8.482,8.482,0,0,0-5.327,2.344v10.739c0,1.364,0,2.642.043,3.835l2.813.554v1.96Z" transform="translate(-106.486 296.03)" fill="#ffd065"/>
      <path id="Path_333" d="M244.885-276.582v-1.96l3.239-.6c.043-1.193.043-2.472.085-3.793,0-1.321.043-2.514.043-3.622v-20.371l-3.452-.469v-1.875l8.651-2.131.724.426-.17,6.691v15.6l7.884-7.969-3.58-.724.043-2H269.56v2l-4.3.6-4.773,4.645,7.287,12.87,3.068.682v1.96h-8.012l-6.35-11.592-2.472,2.429c0,1.065,0,2.173.043,3.367,0,1.151.043,2.259.085,3.281l3.2.554v1.96l-12.444.043Z" transform="translate(-146.655 311.4)" fill="#ffd065"/>
      <path id="Path_334" d="M318.953-260.468a12.059,12.059,0,0,1-5.838-1.406,9.554,9.554,0,0,1-3.921-4.091,13.241,13.241,0,0,1-1.406-6.392,12.881,12.881,0,0,1,1.619-6.52,11.447,11.447,0,0,1,4.262-4.176,11.758,11.758,0,0,1,5.625-1.449,9.818,9.818,0,0,1,4.9,1.193,8.112,8.112,0,0,1,3.239,3.324,10.264,10.264,0,0,1,1.151,5.029,10.577,10.577,0,0,1-.3,2.6H313.754q.192,4.091,2.173,6.137a6.532,6.532,0,0,0,4.943,2.046,7.2,7.2,0,0,0,3.537-.81,10.736,10.736,0,0,0,2.642-2.173l1.364,1.236a10.391,10.391,0,0,1-3.75,4.049,11.134,11.134,0,0,1-5.711,1.406m0-21.777a3.954,3.954,0,0,0-2.259.725,5.827,5.827,0,0,0-1.918,2.386,12.635,12.635,0,0,0-.98,4.517h6.478a2.626,2.626,0,0,0,2.259-.724,3.054,3.054,0,0,0,.554-2,5.245,5.245,0,0,0-1.236-3.58,3.667,3.667,0,0,0-2.9-1.321" transform="translate(-182.794 295.968)" fill="#ffd065"/>
      <path id="Path_335" d="M375.855-281.025V-282.9h9.12v1.875l-2.642.511-8.1,21.138a30.033,30.033,0,0,1-4.134,8.055,6.3,6.3,0,0,1-5.157,2.6,5.311,5.311,0,0,1-3.2-.938,3.059,3.059,0,0,1-1.449-2.387,2.95,2.95,0,0,1,1.321-1.918,4.212,4.212,0,0,1,2.259-.639,4.762,4.762,0,0,1,1.875.384,5.543,5.543,0,0,1,1.875,1.577l.3.384a14.009,14.009,0,0,0,2.216-2.813,19.081,19.081,0,0,0,1.577-3.409l.085-.3-9.077-21.862-2.429-.384V-282.9h12.444v1.875l-3.75.511,5.327,14.532,5.157-14.447-3.622-.6Z" transform="translate(-212.933 295.046)" fill="#ffd065"/>
      <path id="Path_336" d="M456.431-275.455l-.384-2.727a8.838,8.838,0,0,1-6.691,2.9,9.146,9.146,0,0,1-4.816-1.364,9.294,9.294,0,0,1-3.409-4.049,15.585,15.585,0,0,1-1.236-6.52,13.821,13.821,0,0,1,1.492-6.648,10.977,10.977,0,0,1,3.878-4.262,9.18,9.18,0,0,1,5.071-1.492,7.716,7.716,0,0,1,3.239.639,9.017,9.017,0,0,1,2.514,1.875V-305.8l-3.324-.469v-2l10.015-2.131.767.469-.17,6.648v24.632l2.344.469v2.216l-9.29.511Zm-8.481-11.89a10.773,10.773,0,0,0,1.364,5.924,4.184,4.184,0,0,0,3.58,2,4.429,4.429,0,0,0,2.941-1.108v-14.149a4.515,4.515,0,0,0-2.813-.98,4.2,4.2,0,0,0-3.622,2.046c-.98,1.364-1.449,3.452-1.449,6.265" transform="translate(-258.606 310.826)" fill="#ffd065"/>
      <path id="Path_337" d="M518.057-260.827a12.882,12.882,0,0,1-6.392-1.534,10.677,10.677,0,0,1-4.176-4.3A13.6,13.6,0,0,1,506-273.1a12.652,12.652,0,0,1,1.577-6.35,11.176,11.176,0,0,1,4.347-4.219,12.728,12.728,0,0,1,6.137-1.534,12.6,12.6,0,0,1,6.094,1.449,11.177,11.177,0,0,1,4.347,4.219,12.57,12.57,0,0,1,1.619,6.435,13.481,13.481,0,0,1-1.492,6.435,10.677,10.677,0,0,1-4.176,4.3,12.667,12.667,0,0,1-6.392,1.534m0-2.472a3.192,3.192,0,0,0,2.983-2.3c.682-1.534.98-4.006.98-7.33a21.034,21.034,0,0,0-.98-7.415c-.682-1.534-1.662-2.344-2.983-2.344a3.192,3.192,0,0,0-3.026,2.344,20.869,20.869,0,0,0-.98,7.415,20.331,20.331,0,0,0,.98,7.33c.682,1.534,1.662,2.3,3.026,2.3" transform="translate(-296.537 296.369)" fill="#ffd065"/>
      <path id="Path_338" d="M585.583-275.923v-2.216l2.514-.511c.043-1.151.043-2.387.043-3.708v-23.524l-2.94-.383v-2L595-310.4l.767.469-.213,6.648v6.691a9.4,9.4,0,0,1,6.861-3.026,8.711,8.711,0,0,1,4.688,1.364,8.84,8.84,0,0,1,3.324,4.049,16.013,16.013,0,0,1,1.278,6.606,14.627,14.627,0,0,1-1.406,6.606,10.885,10.885,0,0,1-3.708,4.262,9.108,9.108,0,0,1-4.986,1.492,7.7,7.7,0,0,1-6.265-2.813l-.81,2.77-8.949-.639Zm13.424-19.6a3.844,3.844,0,0,0-1.7.384,8.788,8.788,0,0,0-1.577.98v13.552a4.541,4.541,0,0,0,3.239,1.321,4.068,4.068,0,0,0,3.452-2.046,11.513,11.513,0,0,0,1.364-6.222c0-2.813-.426-4.858-1.321-6.137a4.015,4.015,0,0,0-3.452-1.833" transform="translate(-341.989 310.826)" fill="#ffd065"/>
      <path id="Path_339" d="M666.537-260.885a12.886,12.886,0,0,1-6.137-1.449,10.639,10.639,0,0,1-4.176-4.176,13.366,13.366,0,0,1-1.534-6.52,12.209,12.209,0,0,1,1.79-6.733,11.532,11.532,0,0,1,4.56-4.134,12.558,12.558,0,0,1,5.838-1.406,10.1,10.1,0,0,1,5.327,1.321,8.417,8.417,0,0,1,3.324,3.58,11.4,11.4,0,0,1,1.151,5.157,9.9,9.9,0,0,1-.3,2.514H662.659c.17,2.514.852,4.347,2.046,5.54a6.063,6.063,0,0,0,4.3,1.79,6.893,6.893,0,0,0,3.324-.724,10.12,10.12,0,0,0,2.429-1.833l1.662,1.534a9.868,9.868,0,0,1-3.963,4.176,12.241,12.241,0,0,1-5.924,1.364m-.085-21.9a3.08,3.08,0,0,0-2.429,1.619c-.767,1.108-1.151,3.068-1.279,6.009h4.049a2.978,2.978,0,0,0,2.3-.682,3.421,3.421,0,0,0,.6-2.3,5.63,5.63,0,0,0-.938-3.495,2.97,2.97,0,0,0-2.3-1.151" transform="translate(-381.86 296.427)" fill="#ffd065"/>
      <path id="Path_340" d="M720.659-268.857a7.473,7.473,0,0,1-4.986-1.534c-1.193-1.023-1.79-2.727-1.79-5.071,0-.81,0-1.577.043-2.3s.043-1.534.043-2.429v-9.077H710.9v-2.813l3.495-.469,2.387-6.648H721.6l-.085,6.691H726.5v3.239h-4.986v13.3a3.536,3.536,0,0,0,.682,2.429,2.1,2.1,0,0,0,1.747.767A4.371,4.371,0,0,0,726.5-273.8l1.193,1.151a6.985,6.985,0,0,1-2.642,2.813,8.394,8.394,0,0,1-4.389.98" transform="translate(-414.12 304.399)" fill="#ffd065"/>
      <path id="Path_341" d="M760-268.857a7.474,7.474,0,0,1-4.986-1.534c-1.193-1.023-1.79-2.727-1.79-5.071v-2.3c0-.725.043-1.534.043-2.429v-9.077H750.2v-2.813l3.495-.469,2.387-6.648H760.9l-.085,6.691H765.8v3.239h-4.986v13.3a3.536,3.536,0,0,0,.682,2.429,2.1,2.1,0,0,0,1.747.767A4.371,4.371,0,0,0,765.8-273.8l1.193,1.151a6.985,6.985,0,0,1-2.642,2.813,8.066,8.066,0,0,1-4.347.98" transform="translate(-436.672 304.399)" fill="#ffd065"/>
      <path id="Path_342" d="M803.337-260.885a12.886,12.886,0,0,1-6.137-1.449,10.638,10.638,0,0,1-4.176-4.176,13.366,13.366,0,0,1-1.534-6.52,12.208,12.208,0,0,1,1.79-6.733,11.532,11.532,0,0,1,4.56-4.134,12.557,12.557,0,0,1,5.838-1.406,10.1,10.1,0,0,1,5.327,1.321,8.416,8.416,0,0,1,3.324,3.58,11.4,11.4,0,0,1,1.151,5.157,9.906,9.906,0,0,1-.3,2.514H799.459c.17,2.514.852,4.347,2.046,5.54a6.063,6.063,0,0,0,4.3,1.79,6.892,6.892,0,0,0,3.324-.724,10.117,10.117,0,0,0,2.429-1.833l1.662,1.534a9.868,9.868,0,0,1-3.963,4.176,12.241,12.241,0,0,1-5.924,1.364m-.085-21.9a3.08,3.08,0,0,0-2.429,1.619c-.767,1.108-1.151,3.068-1.278,6.009h4.049a2.977,2.977,0,0,0,2.3-.682,3.422,3.422,0,0,0,.6-2.3,5.631,5.631,0,0,0-.938-3.495,2.97,2.97,0,0,0-2.3-1.151" transform="translate(-460.361 296.427)" fill="#ffd065"/>
      <path id="Path_343" d="M851.084-261.548v-2.216l2.6-.511c.043-1.151.043-2.429.043-3.75v-8.438c0-.554-.043-1.108-.043-1.577s-.043-1.065-.085-1.662l-2.9-.426V-282l9.333-3.2.852.511.426,5.583a9.813,9.813,0,0,1,2.813-4.56,5.358,5.358,0,0,1,3.537-1.534,4.334,4.334,0,0,1,2.685.895,3.8,3.8,0,0,1,1.406,2.642,4.234,4.234,0,0,1-.98,2.855,3.159,3.159,0,0,1-2.386,1.023A4.628,4.628,0,0,1,864.721-280l-.3-.384a10.087,10.087,0,0,0-1.918,2.514,13.19,13.19,0,0,0-1.279,3.2v6.606c0,1.279,0,2.472.043,3.537l3.75.81v2.216l-13.935-.043Z" transform="translate(-494.342 296.365)" fill="#ffd065"/>
      <path id="Path_344" d="M899.065-237.856a3.5,3.5,0,0,1-2.6-1.065,3.651,3.651,0,0,1-1.065-2.557,3.676,3.676,0,0,1,1.065-2.6,3.679,3.679,0,0,1,5.157-.085c0,.043.043.043.085.085a3.675,3.675,0,0,1,1.065,2.6,3.577,3.577,0,0,1-1.065,2.557,3.5,3.5,0,0,1-2.642,1.065" transform="translate(-519.993 273.398)" fill="#ffd065"/>
    </g>
    <g id="Group_23073" data-name="Group 23073" transform="translate(154.89 -463.66)">
      <path id="Path_49" data-name="Path 49" d="M26.193,114.1a124.041,124.041,0,0,1-.745-18.128c.051-13.4,3.756-25.93,8.409-38.265C36.671,50.251,41.42,44,46.481,38c2.738-3.25,5.633-6.367,8.508-9.5a2.452,2.452,0,0,0,.3-3.54c-.966-1.378-1.663-2.944-2.511-4.408-1.232-2.127-1.551-4.194-.1-6.415a35.379,35.379,0,0,0,2.056-4.164A2.947,2.947,0,0,1,57.349,8a2.136,2.136,0,0,0,1.292-.767,28.056,28.056,0,0,0,2.173-2.9A7.642,7.642,0,0,1,67.223.479c3.168-.122,6.33-.36,9.5-.474A6.332,6.332,0,0,1,82.84,3.4q3.086,5.5,6.017,11.093a2.744,2.744,0,0,1-.07,1.706c-.42,1.684-.956,3.338-1.35,5.028-.079.339.222.819.447,1.17a12.645,12.645,0,0,0,1.6,2.245c1.835,1.828,1.712,4.028,1.172,6.225-.683,2.774-1.6,5.488-2.355,8.245a1.861,1.861,0,0,1-2.057,1.432c-1.679.02-3.358.006-5.23.006.378,2.014.738,3.888,1.081,5.765.74,4.049,1.689,8.075,2.146,12.156.476,4.235,2.584,7.891,3.591,11.918,1.409,5.633,2.959,11.233,4.277,16.888s2.441,11.37,3.613,17.066c.615,2.987,1.107,6,1.753,8.98a5.255,5.255,0,0,0,1.085,2.092c1.093,1.347,2.372,2.546,3.417,3.926a2.271,2.271,0,0,1,.336,1.978c-.22.4-1.229.441-1.9.468a12.833,12.833,0,0,1-2.729-.169,18.335,18.335,0,0,1-2.964-.8,11.961,11.961,0,0,1-1.749-.963,3.76,3.76,0,0,1-4.172,1.779c-2.435-.31-4.862-.714-7.306-.888a49.771,49.771,0,0,0-17.168,1.587,19.446,19.446,0,0,1-4.715.575c-3.232.085-4.659-1.716-4.039-4.91.045-.229.041-.468.086-1.03-.612.356-1.042.578-1.442.845-3.939,2.63-8.141,3.854-12.88,2.673-2.049-.51-4.145-.849-6.234-1.173a2.719,2.719,0,0,0-1.783.279c-2.472,1.659-5.313,2.047-8.115,2.2-4.7.259-9.408.219-14.112.245-2.583.014-4.1-1.351-4.988-3.807-1.776-4.913-3.74-9.757-5.62-14.632a6.676,6.676,0,0,1-.108-4.7c1.616-4.665,3.174-9.353,4.911-13.973C11.33,68.856,18.749,53.39,25.706,37.718c1.834-4.133,2.9-8.61,4.339-12.924a1.462,1.462,0,0,0-.651-1.857c-1.173-.847-2.242-1.842-3.435-2.654a1.689,1.689,0,0,0-1.471-.093,15.6,15.6,0,0,0-2.592,1.839c-2.619,2.222-3.107,3.951-1.707,6.868a2.743,2.743,0,0,1-.246,2.251,9.87,9.87,0,0,1-2.468,2.608,2.154,2.154,0,0,1-1.91-.081c-2.152-1.259-3.427-3.293-4.611-5.456a6.026,6.026,0,0,1,.215-6.829A42.7,42.7,0,0,1,21.259,10.115a3.905,3.905,0,0,1,4.182-.609c3.383,1.385,6.857,2.563,10.171,4.1a37.518,37.518,0,0,1,5.167,3.412,2.982,2.982,0,0,1,1.176,3.717c-1.836,5.3-3.38,10.748-5.676,15.846-4.136,9.179-8.746,18.141-13.139,27.2-5.154,10.636-10.261,21.29-14.5,32.35a11.31,11.31,0,0,0-.245,7.782,33.566,33.566,0,0,1,1.2,4.193,3.51,3.51,0,0,0,2.875,3.051c3.408.807,6.831,1.551,10.252,2.3,1.108.242,2.228.418,3.471.648M81.728,89.869c-1.861,4.254-3.764,8.055-5.182,12.033a59.379,59.379,0,0,0-1.969,8.879,1.634,1.634,0,0,0,.69,1.38,7.742,7.742,0,0,0,2.619.668c3.479.3,6.963.521,10.686.789a4.672,4.672,0,0,0,.274-1.912,40.628,40.628,0,0,0-1.487-4.089c-1.008-2.722-2.107-5.414-2.982-8.178-.949-2.991-1.685-6.049-2.648-9.569M72.721,72.16c-3.41-1.892-5.3-2.24-7.815.5-2.379,2.591-4.79,5.152-7.176,7.737a14.085,14.085,0,0,0-.864,1.142l.268.246L72.721,72.16" transform="translate(0 0)" fill="#ffd065"/>
    </g>
  </g>
</svg>
